<?xml version="1.0" standalone="no"?><!DOCTYPE svg PUBLIC "-//W3C//DTD SVG 1.1//EN" "http://www.w3.org/Graphics/SVG/1.1/DTD/svg11.dtd"><svg t="1637741757603" class="icon" viewBox="0 0 1024 1024" version="1.1" xmlns="http://www.w3.org/2000/svg" p-id="3297" xmlns:xlink="http://www.w3.org/1999/xlink" width="200" height="200"><defs><style type="text/css"></style></defs><path d="M437.831795 875.898059c-38.270786 0.001024-74.665813-13.152831-103.785112-37.767034-38.885117-32.869791-53.496984-80.720047-47.378246-155.155486 0.926616-11.27093 10.823492-19.650407 22.08623-18.730958 11.271954 0.925592 19.657574 10.815301 18.730959 22.08623-6.272321 76.319388 13.162046 103.752348 32.999824 120.521542 24.44219 20.660982 55.881613 30.469803 88.527173 27.597805 33.35716-2.92524 63.360072-18.514918 84.480778-43.894988 40.369751-48.510663 50.474475-110.095317 50.572768-110.711696 4.721135-29.905643 30.994033-53.718144 58.808901-78.928249 8.69893-7.883917 17.693762-16.036092 26.087574-24.429903 0.175084-0.174061 0.352217-0.345049 0.533444-0.512967 43.894988-40.832547 90.332283-158.71144 63.186012-250.486377-3.207833-10.844993 2.983602-22.236741 13.828595-25.445599 10.844993-3.206809 22.237765 2.983602 25.445598 13.828596 18.884541 63.845393 7.359688 127.645736-5.635465 169.926056-15.590702 50.725327-41.235958 96.257507-68.650487 121.903787-9.024525 9.009167-18.309117 17.423457-27.289616 25.563345-21.330603 19.333003-43.388165 39.324364-45.858799 54.970355-0.468939 2.972339-12.040891 73.437151-59.545075 130.520806-28.155823 33.835314-68.067896 54.609948-112.382678 58.49764-4.945366 0.43208-9.871278 0.647096-14.762378 0.647095zM353.90801 306.15707c-2.797255 0-5.637513-0.575424-8.355928-1.791799-10.322812-4.620794-14.94463-16.735406-10.323836-27.057194 0.888732-1.985314 22.330939-49.045131 71.018734-84.994768 45.240373-33.404259 123.013678-63.296591 236.605565-15.999232 10.979122 4.570624 21.488281 9.738173 31.238741 15.359304 9.796535 5.648775 13.161022 18.170893 7.511223 27.968451-5.648775 9.797559-18.170893 13.161022-27.968452 7.512247-8.234086-4.747756-17.15827-9.132033-26.522725-13.030989-76.989009-32.056826-143.113571-28.307358-196.535812 11.136801-40.126066 29.629194-57.791159 68.393492-57.96522 68.781544-3.404419 7.604396-10.876734 12.115635-18.70229 12.115635z" fill="#515151" p-id="3298"></path><path d="M452.548099 353.174908c7.387333 9.868207 15.683875 16.62585 27.169821 21.204665 8.071288 3.218072 17.00264 4.426256 25.657542 4.635129 9.247732 0.223207 18.625498-1.098629 27.686883-2.811589 3.828307-0.723887 7.62385-1.611596 11.436799-2.408178 3.880525-0.810917 9.085958-2.698962 13.064777-2.395892-4.60646-0.351193-2.979506 0.330715-1.21228 0.201706 1.087366-0.079863 2.170637-0.21092 3.259027-0.288736a79.953157 79.953157 0 0 1 5.647751-0.207849c2.125586 0 4.209193 0.177132 6.326587 0.307166 3.162782 0.193514-4.51943-1.010575-1.502039-0.139248 1.231734 0.355288 2.517734 0.544707 3.754587 0.902042 0.657334 0.190443 2.41125 1.034124 2.926264 0.96962-0.263139 0.032764-3.990081-2.064153-1.953573-0.773034 0.669621 0.424912 6.313277 3.942982 3.73411 2.034461-2.398963-1.774393-0.193514-0.10546 0.220135 0.313309 0.776105 0.786344 1.584974 1.526613 2.336507 2.33753 0.457677 0.493513 1.856304 1.765178 2.169613 2.505447-1.78668-4.221479-1.14368-1.434463-0.14744 0.047099 2.349817 3.492473 4.412946 7.166173 6.434096 10.855232a272.723119 272.723119 0 0 1 3.392132 6.34297 140.262051 140.262051 0 0 1 1.664837 3.331722l0.797607 1.687364c0.91433 2.045723 1.018766 2.267906 0.313309 0.664501 0.067576-0.052218-0.594877-1.76825 0.187371 0.695218 0.369623 1.164158 0.78532 2.306814 1.115011 3.483258 0.327643 1.165181 0.552898 2.33753 0.85904 3.50476 0.861088 3.285648 0.621498-0.150511-0.113652-0.847777 0.407506 0.387029-0.364503 3.473019 0.022526 3.516022-0.274401-0.030717 1.097605-4.448782 0.251876-1.748796a44.317852 44.317852 0 0 0-0.920473 3.351176c-0.575424 2.536164 2.325244-3.951173 0.069624-0.564161 0.051194-0.077815-1.435487 2.604764-1.665861 2.606812-0.16075 0.001024 3.90817-4.282912 0.689074-1.002383-1.296239 1.320812-2.533092 2.684627-3.886668 3.949125-3.313293 3.094181-6.905083 5.863791-10.465132 8.66207-6.599965 5.189051-13.043275 10.571616-19.256212 16.218344-13.797879 12.540547-26.140816 26.350713-37.248948 41.322988-21.654151 29.186875-34.830531 64.348121-33.873198 100.946902 0.237541 9.083911 1.037196 18.142224 1.331051 27.224087 0.148463 4.577791 0.177132 9.16275-0.088054 13.736445a99.333259 99.333259 0 0 1-0.215016 2.970291c-0.038908 0.491465-0.086006 0.980882-0.141296 1.4703-0.196586 1.811253-0.074744 0.980882 0.365527-2.492137-0.80375 1.363815-0.705457 4.036156-1.096581 5.651847-0.501704 2.073368-1.220471 4.05561-1.851185 6.086998-0.883613 2.846401 2.125586-4.228646 0.67986-1.626954-0.56928 1.023885-1.048459 2.095893-1.642312 3.108516-0.480202 0.818084-1.027981 1.585998-1.513303 2.39794-2.067224 3.457661 2.468588-2.559713 0.497609-0.670645-0.726959 0.696242-1.365863 1.494873-2.08975 2.201353-0.379861 0.387029-0.775081 0.757675-1.18566 1.11194-1.277809 1.116035-0.768938 0.76689 1.528661-1.046411-1.037196 1.463132-3.877454 2.575072-5.474715 3.426944-0.366551 0.195562-2.298623 1.427296-2.912953 1.432416 2.762443-1.129346 3.337866-1.390436 1.72627-0.782249-0.76689 0.290783-1.539924 0.560065-2.321148 0.80887a69.220791 69.220791 0 0 1-6.355256 1.721151c-1.073032 0.238565-2.164494 0.404435-3.235478 0.648119-4.694514 1.068936 4.779497-0.492489-0.381909 0.095222-6.303038 0.71672-11.636457 2.093845-16.290015 6.747404-3.995201 3.995201-7.0044 10.551138-6.747405 16.290015 0.506823 11.313933 10.213256 24.495433 23.03742 23.03742 24.080759-2.737869 45.876206-10.974003 59.988418-31.76809 10.831683-15.960324 12.433039-36.621306 11.768537-55.334858-0.313309-8.821796-1.072008-17.623114-1.305453-26.449006-0.109556-4.126258-0.099317-8.255587 0.148463-12.376726 0.111604-1.852209 0.338906-3.694178 0.472011-5.543315 0.230374-3.208857-0.752556 4.585982-0.21604 1.421153 0.219111-1.294191 0.406482-2.593502 0.643-3.885645 0.755627-4.116019 1.719103-8.195178 2.884285-12.214952 1.260403-4.348441 3.87131-8.935447 4.637177-13.336106-0.096245 0.55085-2.192138 4.871646-0.473035 1.155966 0.441295-0.955285 0.865183-1.917737 1.312621-2.86995a155.99712 155.99712 0 0 1 2.809541-5.672325 168.87555 168.87555 0 0 1 6.311229-11.0682 189.615371 189.615371 0 0 1 7.148768-10.689363c1.250164-1.740605 2.469611-3.565169 3.856976-5.198266-4.058681 4.777449 1.458013-1.703745 2.501352-2.94879 5.779833-6.903035 11.962052-13.468188 18.423792-19.735389 6.447406-6.252868 13.179452-12.206761 20.124466-17.900587 6.779145-5.55765 14.179788-10.578783 20.119347-17.07636 9.232374-10.099605 14.984562-22.000224 15.602988-35.802198 0.578495-12.925528-4.304414-25.421025-9.883565-36.794343-4.815333-9.814965-10.273665-19.207065-17.1081-27.757531-7.509175-9.393124-17.302638-15.842578-28.593021-19.831635-21.988961-7.769242-45.561873-0.828323-67.471995 3.314317-0.935831 0.177132-1.87371 0.344025-2.812613 0.501704-3.657318 0.610236-0.883613 0.001024 1.12013-0.089079-2.413298 0.108532-4.824548 0.522182-7.243988 0.653239-2.165517 0.116723-4.334107 0.153583-6.501672 0.101365-1.938215-0.047099-4.492809-0.734126-6.37471-0.438223 0.531396-0.083959 5.69485 1.12525 1.999648 0.182252-1.103748-0.281568-2.228998-0.475083-3.331723-0.77201-0.870303-0.23447-1.722175-0.524229-2.585311-0.777129-4.059705-1.190779 0.511943-0.459725 1.179516 0.59283-0.193514-0.304094-1.876782-0.955285-2.335482-1.2174a24.233318 24.233318 0 0 1-1.677124-1.0331c-1.447774-0.969619-0.780201-0.41365 2.003743 1.668933-0.564161-0.997264-6.508839-7.354568-1.920809-1.226615-3.732062-4.986322-7.525557-8.867871-13.768186-10.586974-5.514646-1.518422-12.857952-0.833443-17.752123 2.322172-9.514966 6.137169-15.991041 21.204665-8.26685 31.522357z" fill="#515151" p-id="3299"></path></svg>