<?xml version="1.0" standalone="no"?><!DOCTYPE svg PUBLIC "-//W3C//DTD SVG 1.1//EN" "http://www.w3.org/Graphics/SVG/1.1/DTD/svg11.dtd"><svg t="1637741745517" class="icon" viewBox="0 0 1024 1024" version="1.1" xmlns="http://www.w3.org/2000/svg" p-id="3088" xmlns:xlink="http://www.w3.org/1999/xlink" width="200" height="200"><defs><style type="text/css"></style></defs><path d="M425.410018 499.027373c15.607084 5.203385 24.141168 22.073944 18.90809 37.720959-5.176764 15.636777-22.071896 24.078711-37.719935 18.854848-15.628586-5.179836-24.126834-22.068824-18.907066-37.719935 5.176764-15.639848 22.079063-24.078711 37.718911-18.855872zM610.07388 500.984018c15.655207 5.265842 24.097141 22.090326 18.928568 37.714816-5.234102 15.662374-22.121042 24.161646-37.761915 18.920377-15.64292-5.240245-24.106356-22.074968-18.858944-37.730175 5.161406-15.628586 22.070872-24.152431 37.692291-18.905018zM597.227191 623.182684c-22.833667 20.723439-45.275185 37.915497-88.795431 38.133585-46.076887 0.278497-68.759019-18.563041-86.406707-36.236326-8.957973-8.984594-23.499192-8.988689-32.473547-0.034812-8.973331 8.952853-8.988689 23.498168-0.023549 32.468427 24.738093 24.797479 58.248836 50.079255 119.156702 49.72192 59.655655-0.306142 92.913498-25.990305 119.407555-50.048539 9.395172-8.524869 10.095509-23.022062 1.574735-32.441806-8.529989-9.385957-23.036396-10.084247-32.439758-1.562449z" fill="#515151" p-id="3089"></path><path d="M514.240261 825.03758c-65.020814 0-126.895228-21.456541-178.934199-62.050523-46.306238-36.12165-81.171581-84.383509-101.561233-140.341913-36.721647-0.718767-66.373366-30.998128-66.373367-68.113971 0-17.990689 6.91225-34.952373 19.465084-47.759131 7.834771-7.995521 17.309805-13.807094 27.672549-17.114244 2.986673-49.398371 16.998544-97.485146 40.915481-140.034748 5.542291-9.857968 18.025501-13.358632 27.885517-7.81634 9.857968 5.542291 13.357608 18.026525 7.816341 27.885516-23.296463 41.443806-35.833939 88.969491-36.256803 137.439199-0.097269 11.122466-9.053194 20.132657-20.174637 20.297503-14.540195 0.213992-26.369143 12.37263-26.369142 27.103268 0 14.982514 12.001984 27.171869 26.754123 27.171869 1.9976 0 4.267554-0.379861 7.143648-1.196922 10.727247-3.050154 21.914218 3.048107 25.175292 13.708801C302.141392 707.781209 401.338474 784.083191 514.239237 784.083191c114.037276 0 213.544595-77.262387 247.610284-192.255972a20.44699 20.44699 0 0 1 20.472587-14.644631c0.755627 0.030717 1.430368 0.095221 1.969955 0.157678 14.32006-0.502728 25.818292-12.491401 25.818293-27.155487 0-12.68082-8.535108-23.529909-20.756204-26.384501a20.477706 20.477706 0 0 1-15.815956-19.561329c-2.748108-148.279073-119.067624-268.913242-259.297935-268.913241-50.402803 0-99.264658 15.301966-141.301294 44.250275-9.314285 6.414642-22.065753 4.062777-28.47937-5.251507-6.414642-9.314285-4.062777-22.064729 5.251507-28.479371 48.900763-33.675588 105.793975-51.474811 164.530181-51.47481 79.394116 0 154.2473 32.211432 210.771914 90.701905 52.979922 54.821892 84.258595 126.94335 88.922392 204.381845 22.461996 11.33953 37.132225 34.48241 37.132225 60.730734 0 32.936343-23.351753 60.489097-54.270017 66.779849-9.170941 26.634329-21.73299 51.828051-37.436319 75.058985-18.123794 26.809413-40.02163 50.404851-65.082247 70.130002-52.271394 41.138688-114.527717 62.883965-180.038972 62.883965z" fill="#515151" p-id="3090"></path><path d="M447.768602 291.442814c-10.371958 2.208521-18.434031 9.108484-24.52103 17.4296-5.337514 7.297231-7.541939 16.157934-8.383573 25.001232-0.934807 9.825204 2.281217 19.540851 6.249796 28.351385 3.507831 7.787672 8.858656 14.639512 14.25146 21.193402 5.426592 6.593821 11.415297 12.702321 16.649399 19.457917l-3.201689-4.144688c3.410562 4.479498 6.442286 9.200634 8.658998 14.389684l-2.064153-4.892124c1.248116 3.092134 2.154255 6.236486 2.603741 9.543635l-0.731054-5.443998c0.246756 2.344697 0.255971 4.647415-0.053242 6.986994l0.731054-5.443999a24.993041 24.993041 0 0 1-1.638217 5.660038l2.064153-4.892124a23.624106 23.624106 0 0 1-2.631385 4.403731l3.201689-4.144688a21.134017 21.134017 0 0 1-3.076775 3.07268l4.144687-3.201689a19.560305 19.560305 0 0 1-3.102372 1.885997c-4.224551 2.060057-8.380501 7.716-9.41053 12.238501-1.043339 4.578815-0.802726 8.985618 1.032076 13.333035 1.659718 3.933767 4.49588 7.740573 8.378454 9.792439l4.892124 2.064153c3.629673 0.975763 7.258323 0.975763 10.887997 0 19.178396-2.766538 37.238709-9.527253 54.923256-17.221752 14.625178-6.363447 29.561617-13.200953 42.676564-22.366774 7.305422-5.105092 14.518694-10.75182 20.205353-17.673285 7.044331-8.571968 12.177068-17.481818 15.662374-28.08927 3.130017-9.526229 4.989393-20.186923 4.69861-30.205641-0.310237-10.71496-2.973363-22.057562-9.512919-30.758539-4.206121-5.596557-8.792103-10.614619-15.084902-13.989345-5.891436-3.15971-12.728942-5.372326-19.498872-5.080519-6.332731 0.272353-12.999248 1.829683-18.35724 5.35492-6.502696 4.277793-12.275361 10.902331-13.739517 18.779081-1.022861 5.503384-0.846753 10.805062 2.064152 15.779096 2.485994 4.2481 7.356616 8.298591 12.238502 9.41053 5.242293 1.19385 11.126562 0.935831 15.779096-2.064152 4.265506-2.750156 8.447054-7.055594 9.41053-12.238502 0.150511-0.811941 0.367575-1.55733 0.67986-2.321148l-2.064152 4.892124c0.351193-0.719791 0.749484-1.365863 1.23071-2.005791l-3.20169 4.144688a14.161358 14.161358 0 0 1 1.685316-1.6761l-4.144688 3.201689a15.763738 15.763738 0 0 1 3.174044-1.863471l-4.892124 2.064153a18.528229 18.528229 0 0 1 4.300319-1.128322l-5.443999 0.731054a19.240853 19.240853 0 0 1 3.831379-0.014334l-5.443998-0.731054c1.614667 0.223207 3.12285 0.664502 4.639224 1.258355l-4.892124-2.064153c1.802038 0.780201 3.450494 1.745724 5.027277 2.915001l-4.144688-3.201689a29.242165 29.242165 0 0 1 4.683252 4.663798l-3.20169-4.144688a32.467404 32.467404 0 0 1 4.090422 7.05457l-2.064153-4.892124c1.068936 2.696914 1.764154 5.471643 2.207497 8.336474l-0.731054-5.443998c0.647096 4.913626 0.485322 9.813941-0.139248 14.721423l0.731054-5.443998c-0.965524 6.902011-2.630361 13.69549-5.303726 20.140848l2.064153-4.892124a59.457021 59.457021 0 0 1-7.521462 12.76273l3.201689-4.144688c-3.754587 4.744685-8.118387 8.892444-12.872286 12.623483l4.144688-3.20169c-14.980466 11.553522-32.972179 19.586926-50.300414 26.914874l4.892124-2.064153c-14.974323 6.278465-30.46366 11.353864-46.57552 13.678084l15.779097 37.428128c9.640904-4.702705 16.809125-14.849409 19.423105-25.092358 3.116707-12.210856 0.484298-24.090998-4.534789-35.310733-6.880509-15.382853-20.060985-26.759243-30.283456-39.817876l3.20169 4.144688c-3.631721-4.714992-6.874366-9.688003-9.255924-15.157599l2.064153 4.892124c-1.39658-3.362439-2.41125-6.804742-2.951861-10.408818l0.731054 5.443998c-0.333787-2.642648-0.367575-5.228982-0.052218-7.874702l-0.731055 5.443999a32.440783 32.440783 0 0 1 2.214664-8.018046l-2.064152 4.892124a30.063321 30.063321 0 0 1 3.461756-5.882221l-3.201689 4.144687a25.389284 25.389284 0 0 1 4.250147-4.221479l-4.144687 3.20169a22.62377 22.62377 0 0 1 3.982914-2.334459l-4.892124 2.064153a21.922409 21.922409 0 0 1 3.845713-1.193851c4.853216-1.0331 9.788344-5.224887 12.238501-9.41053 2.568928-4.389396 3.657318-10.858304 2.064153-15.779096-3.579503-11.067176-13.946342-16.693426-25.187579-14.300607z" fill="#515151" p-id="3091"></path></svg>