<?xml version="1.0" standalone="no"?><!DOCTYPE svg PUBLIC "-//W3C//DTD SVG 1.1//EN" "http://www.w3.org/Graphics/SVG/1.1/DTD/svg11.dtd"><svg t="1637741709565" class="icon" viewBox="0 0 1024 1024" version="1.1" xmlns="http://www.w3.org/2000/svg" p-id="2618" xmlns:xlink="http://www.w3.org/1999/xlink" width="200" height="200"><defs><style type="text/css"></style></defs><path d="M571.671013 632.458061a100.555778 100.555778 0 0 1-8.817701-0.367575c-29.850353-2.637529-38.583071-19.444606-41.131521-29.229878-12.246692-47.012719-23.017966-102.686483-10.061721-159.16195 0.423889-1.850161 0.845729-3.726943 1.27269-5.627274 10.578783-47.051626 26.565729-118.155343 157.7838-134.431024 21.774969-2.701009 61.173053-2.425584 100.106292 4.276769 48.311005 8.31702 79.551794 23.546291 92.854112 45.263923 17.949734 29.305646-8.043643 67.266194-16.585918 79.740189l-0.672693 0.986001c-17.562705 26.018974-43.8612 45.939687-67.269266 61.995233-5.580175 3.827283-12.574336 7.218392-19.980098 10.808133-6.634777 3.217048-15.721759 7.622826-18.880445 10.422129-3.763802 3.334795-10.184587 13.675012-14.872959 21.225143-5.560721 8.953877-10.813253 17.41117-16.413905 23.547315-19.487609 21.348009-67.455613 63.055978-109.512727 68.112947-0.721839 0.08703-1.627978 0.213992-2.685651 0.360408-5.641608 0.781225-15.054186 2.079511-25.132289 2.079511z m-10.878782-42.09295c3.025581 1.058697 10.804038 2.150159 30.408371-0.554946 1.338218-0.185323 2.483946-0.341978 3.395203-0.451533 23.827859-2.865855 61.500696-30.24762 84.156207-55.063529 3.050154-3.342986 7.735454-10.885949 11.868878-17.541203 7.012591-11.292431 14.263746-22.968819 22.502952-30.270146 7.379142-6.539556 17.951781-11.666149 28.178348-16.622778 5.719423-2.772681 11.634409-5.640584 14.680468-7.730335 20.232998-13.877742 42.766666-30.804614 56.490825-51.135904l0.825252-1.210233c17.533012-25.605324 15.5692-34.689235 15.407426-35.28616-5.082567-8.167533-24.758571-19.319692-64.831395-26.217607-34.620634-5.960036-69.944678-6.249796-88.116595-3.994177-102.621978 12.728942-112.91305 58.503784-122.866239 102.771466-0.441295 1.958693-0.875422 3.893836-1.313645 5.801334-8.745005 38.114131-6.085974 78.070232 9.213944 137.505751zM274.286592 799.714848c-0.824228 0-1.643336-0.025597-2.46142-0.077815-11.072296-0.700338-18.447342-6.100309-23.831955-10.044315-1.432416-1.049482-2.785992-2.040603-4.208169-2.966196a20.475659 20.475659 0 0 1-5.021134-4.627962c-13.572624-17.538132-29.206329-53.613707-52.277536-120.629049a21.278385 21.278385 0 0 1-0.298975-0.938903c-17.938471-61.593869-27.304974-115.562865-27.840466-160.406995-0.135153-11.308813 8.923161-20.585214 20.231974-20.720367l0.249828-0.001024c11.196186 0 20.337434 9.007119 20.471563 20.232998 0.489417 41.021966 9.260019 91.139104 26.072216 148.972243 19.447678 56.451917 33.88958 91.231254 44.043451 106.034588 0.99624 0.705457 1.914666 1.379174 2.77473 2.008863 0.891804 0.653239 2.007839 1.471323 2.827971 2.02115 1.313645-0.346073 4.141616-1.313645 9.243637-4.015678 12.428944-9.963428 29.017934-28.4292 35.424384-35.941447l27.537396-41.158142 16.60742-30.108372c0.158702-0.287712 0.324572-0.572352 0.496584-0.851873 2.840258-4.610556 14.694802-19.976003 49.068681-26.648663 16.862367-6.091094 27.383813-13.791735 29.379365-21.441183-1.491801-11.239189-3.834451-21.052106-6.303038-31.396419-4.654583-19.501944-9.468891-39.667365-7.881869-67.949126 0.91433-16.295135 3.252884-28.244901 5.316012-38.789895 3.342986-17.081479 6.239557-31.885837 3.466876-64.739246-1.480538-4.308509-6.073688-16.407762-14.025181-26.471531-10.654551-13.485594-46.881661-27.179036-67.185307-27.953093-22.534692-0.863135-89.346281 21.095109-115.408259 44.21444-8.460364 7.506103-21.403299 6.731022-28.907354-1.729342-7.505079-8.460364-6.731022-21.403299 1.729342-28.907355 21.310125-18.903995 54.715408-32.620986 72.731694-39.115491 28.454797-10.257283 55.164894-16.005375 71.414978-15.39002 26.717264 1.017742 76.904027 17.090694 97.760571 43.488505 14.673301 18.571232 21.074632 39.725727 21.756539 42.076568 0.365527 1.262451 0.609212 2.557666 0.726959 3.867214 3.622506 40.247908-0.185323 59.705825-3.868239 78.523814-1.985314 10.147727-3.861072 19.733342-4.617723 33.218935-1.251188 22.303294 2.492137 37.987169 6.826243 56.1468 2.823876 11.829971 5.743997 24.062329 7.483578 38.847233 0.170989 1.458013 0.186347 2.929336 0.043003 4.39042-1.755963 17.91185-13.304366 42.560865-58.344057 58.27341-1.003408 0.350169-2.033436 0.621498-3.079847 0.811941-15.522102 2.823876-22.000224 7.603372-23.706017 9.094149l-16.043259 29.086534c-0.282592 0.511943-0.586686 1.010575-0.911258 1.496921l-28.672885 42.855744a20.430608 20.430608 0 0 1-1.364839 1.814325c-0.993169 1.176444-24.545603 29.01691-43.664613 43.778265a20.346649 20.346649 0 0 1-2.676437 1.750843c-12.663414 6.936823-22.142544 10.013598-31.085158 10.013599z" fill="#515151" p-id="2619"></path></svg>