<?xml version="1.0" standalone="no"?><!DOCTYPE svg PUBLIC "-//W3C//DTD SVG 1.1//EN" "http://www.w3.org/Graphics/SVG/1.1/DTD/svg11.dtd"><svg t="1637741680105" class="icon" viewBox="0 0 1024 1024" version="1.1" xmlns="http://www.w3.org/2000/svg" p-id="2203" xmlns:xlink="http://www.w3.org/1999/xlink" width="200" height="200"><defs><style type="text/css"></style></defs><path d="M495.455037 927.816213c-19.038124 0-37.204921-7.134433-51.154335-20.089654-13.950438-12.954197-22.40773-30.544547-23.813525-49.530453l-4.40373-59.454973c-0.461772-6.241605-2.666197-12.281504-6.37471-17.469531-28.138416-39.37351-47.193946-74.496872-56.637241-104.396372-6.463788-20.462348-3.716704-42.745165 7.534772-61.133121 11.442942-18.700242 30.43192-31.513143 52.097333-35.157151 25.790647-4.336154 42.055066-14.040539 51.15843-21.416609 13.334059-10.80711 30.126802-16.757931 47.284049-16.757931h2.002719c19.830611 0 38.388532 7.525557 52.25706 21.189307 11.052842 10.88902 25.518294 17.697858 42.994992 20.238117 22.705681 3.301006 42.306942 16.64428 53.778553 36.611068 11.647719 20.271906 13.303342 44.354712 4.542979 66.073368-13.604364 33.724735-37.42608 63.107172-47.036268 74.173324-3.436159 3.959365-7.513271 7.580847-12.827235 11.39482-27.297807 19.594093-34.847937 57.011983-36.37455 84.951765-2.169613 39.686819-35.12541 70.774025-75.029293 70.774026z m15.690019-344.450382a34.263299 34.263299 0 0 0-21.499544 7.620778c-12.920409 10.471275-35.580015 24.172909-70.152527 29.98653-9.971619 1.677124-18.702289 7.561393-23.954821 16.145648-5.136833 8.393812-6.349113 18.131985-3.414658 27.421696 8.146032 25.789624 25.272561 57.05089 50.904507 92.91657 8.075384 11.297551 12.881501 24.527173 13.897195 38.258499l4.403731 59.453949c1.316717 17.76953 16.306398 31.690275 34.125074 31.690275 18.157582 0 33.151359-14.079447 34.134289-32.05273 2.888381-52.885725 21.351081-92.995409 53.389476-115.990849 2.652887-1.903403 4.489737-3.482234 5.780857-4.970964 8.261731-9.513942 28.690291-34.657494 39.980674-62.645399 4.028989-9.98493 3.272337-21.046987-2.07132-30.348985-5.168573-8.995856-13.973987-15.004016-24.158574-16.485578-26.293375-3.820116-48.448206-14.450094-65.849137-31.593005-6.068568-5.97949-14.638488-9.407458-23.513526-9.407459h-2.001696z" fill="#515151" p-id="2204"></path><path d="M417.389924 542.80359c-1.98429 0-3.895884-0.104436-5.723519-0.285664-0.361432-0.035836-0.722863-0.081911-1.082246-0.137201-1.962788-0.302046-48.278241-7.827603-66.599645-45.585422-24.777001-51.062185-10.942262-89.878702-6.426928-100.027453a30.668437 30.668437 0 0 1 1.937191-4.553218c1.845041-3.548787 5.039564-8.525893 9.766842-15.216984 13.49788-19.107748 38.555426-50.959797 74.47537-94.668437a20.443918 20.443918 0 0 1 2.679508-2.703057c1.226615-2.26381 4.520454-9.611212 7.856272-27.950022 2.024221-11.126562 12.686963-18.504679 23.812501-16.482506 11.126562 2.024221 18.505703 12.684915 16.482506 23.811477-4.956629 27.245588-11.583215 43.701473-20.972243 51.499384-59.93108 73.007119-73.969571 94.164686-77.043275 99.32302a19.726175 19.726175 0 0 1-1.649479 3.710561c-1.16211 2.449134-12.291743 27.82306 5.930344 65.377125 7.169245 14.776713 27.436031 21.396132 35.46534 22.891005 17.227894 0.97781 30.984818-32.552386 37.550994-61.82322 6.360376-28.351385 32.537028-48.359128 60.893532-46.546851a67.555954 67.555954 0 0 1 6.14536 0.680884c23.617963 3.719775 42.980658 22.485546 48.181995 46.698386 7.738525 36.028477 24.292703 56.277857 49.200762 60.187051 7.069928 1.107844 14.364087-2.344697 18.595805-8.796199 30.195402-46.048219 5.519766-94.311101-2.763467-108.006591a16.725167 16.725167 0 0 0-1.581902-2.147088c-97.540435-114.482666-99.306638-194.68258-100.061242-228.929496-0.093174-4.231718-0.181228-8.228966-0.449485-10.24602-0.351193-2.629338-0.884637-4.414994-1.331051-5.50236h-28.221351c-10.376054 0-18.751436 8.489033-19.067817 19.324812a1220.061753 1220.061753 0 0 1-1.12013 27.893708c-0.589758 11.294479-10.228614 19.973955-21.517974 19.382149-11.294479-0.589758-19.971907-10.223495-19.382149-21.517974 0.444366-8.507463 0.807846-17.574992 1.081222-26.95071 0.966548-33.132929 27.324428-59.086374 60.005824-59.086374h32.264674c11.209497 0 33.553746 8.578111 37.882733 41.044491 0.56928 4.263458 0.670645 8.894492 0.799655 14.756235 0.713648 32.420305 2.199306 99.880013 90.289279 203.269906 2.076439 2.436847 3.912266 4.965844 5.453214 7.514294 4.655607 7.698594 16.007423 28.517254 20.862687 55.508919 6.218056 34.567392-0.315357 67.816021-18.895804 96.151024-13.035084 19.879757-36.274209 30.394036-59.194906 26.797126-24.396116-3.829331-67.6051-20.880093-82.890684-92.046267-1.669957-7.774361-7.500984-13.738493-14.510503-14.843265a26.237061 26.237061 0 0 0-2.389748-0.26621c-8.44603-0.529349-16.321756 5.752188-18.316285 14.639512-3.469947 15.466812-9.893804 37.811061-20.793063 56.421201-17.670213 30.166733-39.093989 37.436319-55.628714 37.436319z m15.673637-266.89414z" fill="#515151" p-id="2205"></path></svg>