<?xml version="1.0" standalone="no"?><!DOCTYPE svg PUBLIC "-//W3C//DTD SVG 1.1//EN" "http://www.w3.org/Graphics/SVG/1.1/DTD/svg11.dtd"><svg t="1637741894263" class="icon" viewBox="0 0 1024 1024" version="1.1" xmlns="http://www.w3.org/2000/svg" p-id="1662" xmlns:xlink="http://www.w3.org/1999/xlink" width="200" height="200"><defs><style type="text/css"></style></defs><path d="M524.8 307.2h-25.6a217.6 217.6 0 0 0-217.6 217.6V691.2a51.2 51.2 0 0 0 51.2 51.2h358.4a51.2 51.2 0 0 0 51.2-51.2v-166.4a217.6 217.6 0 0 0-217.6-217.6z m-25.6 51.2h25.6a166.4 166.4 0 0 1 166.4 166.4V691.2H332.8v-166.4a166.4 166.4 0 0 1 166.4-166.4zM768 768a25.6 25.6 0 0 1 2.9952 51.0208L768 819.2H256a25.6 25.6 0 0 1-2.9952-51.0208L256 768h512zM512 153.6a25.6 25.6 0 0 1 25.4208 22.6048L537.6 179.2v76.8a25.6 25.6 0 0 1-51.0208 2.9952L486.4 256V179.2a25.6 25.6 0 0 1 25.6-25.6zM749.9008 237.9008a25.6 25.6 0 0 1 38.3232 33.792l-2.1248 2.4064-51.2 51.2a25.6 25.6 0 0 1-38.3232-33.792l2.1248-2.4064 51.2-51.2zM299.6992 237.9008a25.6 25.6 0 0 0-38.3232 33.792l2.1248 2.4064 51.2 51.2a25.6 25.6 0 0 0 38.3232-33.792l-2.1248-2.4064-51.2-51.2z" fill="#515151" p-id="1663"></path><path d="M518.144 418.56a25.6 25.6 0 0 1 40.832 30.72l-1.9456 2.56-40.6016 47.36H576a25.6 25.6 0 0 1 22.0416 38.6048l-1.5616 2.3552-76.8 102.4a25.6 25.6 0 0 1-42.7264-28.032l1.7664-2.688 46.08-61.44H460.8c-20.9152 0-32.6144-23.4752-21.1456-40.0384l1.7152-2.2272 76.8-89.6z" fill="#515151" p-id="1664"></path></svg>