<?xml version="1.0" standalone="no"?><!DOCTYPE svg PUBLIC "-//W3C//DTD SVG 1.1//EN" "http://www.w3.org/Graphics/SVG/1.1/DTD/svg11.dtd"><svg t="1637741862231" class="icon" viewBox="0 0 1024 1024" version="1.1" xmlns="http://www.w3.org/2000/svg" p-id="1246" xmlns:xlink="http://www.w3.org/1999/xlink" width="200" height="200"><defs><style type="text/css"></style></defs><path d="M486.8352 390.1952a25.6 25.6 0 1 1-9.7536 50.2784 166.4 166.4 0 1 0 131.584 195.072 25.6 25.6 0 1 1 50.2528 9.7792 217.6 217.6 0 1 1-172.0832-255.1296z" fill="#515151" p-id="1247"></path><path d="M422.4 652.8m-64 0a64 64 0 1 0 128 0 64 64 0 1 0-128 0Z" fill="#515151" p-id="1248"></path><path d="M600.192 327.7056m-76.507753-6.693561a76.8 76.8 0 1 0 153.015506 13.387122 76.8 76.8 0 1 0-153.015506-13.387122Z" fill="#515151" p-id="1249"></path><path d="M583.6288 352a25.6 25.6 0 0 1 24.832 23.2448l0.128 2.9952-4.352 173.696 112.7168-20.3776a25.6 25.6 0 0 1 26.4448 11.9552l1.4848 2.816 53.7088 120.32a25.6 25.6 0 0 1-45.3888 23.552l-1.3568-2.6624L706.304 585.472l-123.8528 22.4256a25.6 25.6 0 0 1-30.0544-22.8352l-0.1024-2.9952 5.12-205.1328a25.6 25.6 0 0 1 26.2144-24.96z" fill="#515151" p-id="1250"></path><path d="M688.128 426.112a25.6 25.6 0 0 1 10.9824 49.92l-2.9184 0.64-104.2432 16.5888a25.6 25.6 0 0 1-10.9568-49.92l2.9184-0.64 104.2432-16.5888z" fill="#515151" p-id="1251"></path></svg>