<?xml version="1.0" standalone="no"?><!DOCTYPE svg PUBLIC "-//W3C//DTD SVG 1.1//EN" "http://www.w3.org/Graphics/SVG/1.1/DTD/svg11.dtd"><svg t="1637741773153" class="icon" viewBox="0 0 1024 1024" version="1.1" xmlns="http://www.w3.org/2000/svg" p-id="3505" xmlns:xlink="http://www.w3.org/1999/xlink" width="200" height="200"><defs><style type="text/css"></style></defs><path d="M618.141072 846.98149c-18.655191 0.001024-38.454061-11.478778-55.82018-32.770474-2.655959-3.256979-4.990417-6.988017-6.938871-11.090725-19.59307-41.261555-40.01651-63.990785-57.510615-64.001024h-0.01331c-22.414898 0-47.173469 35.283088-61.567249 65.504087-4.89622 10.278785-12.177068 18.424816-21.055177 23.558578-13.927912 8.052858-28.795751 8.426576-41.861552 1.055625-9.244661-5.211576-16.337114-13.933032-19.965764-24.556865L248.012671 496.128754a247.487417 247.487417 0 0 1-12.814949-64.353241c-2.341626-37.022669-0.53754-69.706113 5.361063-97.14112 2.377462-11.056938 13.271602-18.088982 24.325468-15.715616 11.056938 2.377462 18.092054 13.26853 15.715616 24.325468-5.109188 23.759259-6.632729 52.675828-4.528645 85.944934a206.50436 206.50436 0 0 0 10.697554 53.699713l105.396707 308.550915c0.351193 1.029005 0.833443 1.683267 1.136513 1.973027 0.297951-0.104436 0.773033-0.305118 1.435487-0.688051 1.651527-0.955285 3.278481-2.984626 4.578816-5.715328 5.187003-10.890044 16.168173-31.919625 31.427136-50.404851 21.056202-25.507031 43.637993-38.440751 67.114659-38.44075h0.03686c17.71424 0.010239 34.705617 7.454909 50.500072 22.127185 15.643944 14.532004 30.03158 35.87899 43.982018 65.259379 0.669621 1.410914 1.283952 2.28736 1.682243 2.77473 10.162062 12.459661 20.629242 18.731982 24.895772 17.602636 5.202361-1.384293 17.092742-16.390356 24.856864-63.276113a51.675492 51.675492 0 0 1 1.281904-5.766522c7.264466-25.602253 71.831699-252.063161 100.971476-316.365207 8.114291-17.903659 13.143616-35.226775 14.948725-51.489145 4.244005-38.244165-9.974691-70.160718-42.260866-94.864a37.234614 37.234614 0 0 1-1.796919-1.485657c-1.553234-1.339242-4.782568-4.125234-10.404723-7.314637-1.340266-0.759723-2.844353-1.672005-4.585982-2.728654-38.648599-23.429568-97.145216-47.209305-158.653079 16.494792-0.294879 0.306142-0.599997 0.603068-0.91433 0.889756l-37.432223 34.222344c-8.346713 7.632041-21.298863 7.052522-28.930904-1.296239-7.631017-8.346713-7.051498-21.299886 1.296239-28.930904l36.972499-33.80255c20.555522-21.172925 42.931512-36.193322 66.513638-44.648567 20.232998-7.254228 41.453021-9.738173 63.064169-7.37607 37.541779 4.099637 66.814661 21.846641 79.315277 29.424416 1.469275 0.89078 2.737869 1.659718 3.560049 2.125586 9.121794 5.173693 14.60982 9.907114 16.95247 11.92724l0.233445 0.200682c43.64516 33.533268 63.618091 79.054186 57.778873 131.676772-2.28224 20.551426-8.455245 42.041755-18.350073 63.87611-22.670869 50.026013-72.818724 218.806342-98.877629 310.647831a11.805398 11.805398 0 0 0-0.274402 1.265523c-4.712944 28.464012-11.206425 49.92772-19.853136 65.622858-9.10746 16.532676-20.84221 26.810437-34.878654 30.544547a43.779289 43.779289 0 0 1-11.346697 1.479514z" fill="#515151" p-id="3506"></path><path d="M590.565793 380.910938c-3.243669 0-6.534436-0.77201-9.597901-2.402035-3.492473-1.857328-86.031964-45.936615-129.1488-84.524805-27.773913-24.856864-62.607516-36.438031-95.571504-31.771162-6.37471 0.902043-12.450446 2.351865-18.057241 4.30851-10.6781 3.726943-22.354488-1.91057-26.080407-12.58867-3.725919-10.6781 1.91057-22.354488 12.58867-26.081431 8.117363-2.832067 16.800934-4.91465 25.809077-6.190411 44.94959-6.3614 91.831251 8.875038 128.625594 41.805238 39.456445 35.312781 120.255331 78.452141 121.067273 78.883197 9.98493 5.310893 13.774329 17.710144 8.46446 27.695074-3.682916 6.921465-10.77025 10.866495-18.099221 10.866495z" fill="#515151" p-id="3507"></path></svg>