<?xml version="1.0" standalone="no"?><!DOCTYPE svg PUBLIC "-//W3C//DTD SVG 1.1//EN" "http://www.w3.org/Graphics/SVG/1.1/DTD/svg11.dtd"><svg t="1637741733030" class="icon" viewBox="0 0 1024 1024" version="1.1" xmlns="http://www.w3.org/2000/svg" p-id="2879" xmlns:xlink="http://www.w3.org/1999/xlink" width="200" height="200"><defs><style type="text/css"></style></defs><path d="M315.018798 790.249028c-82.864063 0.004096-125.202745-51.904843-140.942934-77.303342-7.213272-11.638504-11.822804-24.949014-13.329964-38.493993-7.478458-67.231382 0.601021-126.054618 24.014207-174.835586 4.893148-10.19585 17.125506-14.493097 27.32238-9.600973 10.19585 4.893148 14.494121 17.12653 9.600972 27.32238-20.042555 41.760187-26.850369 93.096773-20.232997 152.587582 0.837538 7.5317 3.409538 14.947702 7.436479 21.445279 14.471595 23.350729 46.091222 57.874094 106.40421 57.877165 12.261027 0 25.701569-1.426272 40.432208-4.662773 17.954853-3.94503 32.381397-16.594109 38.592286-33.838387 16.003328-44.436623 39.901835-137.377766 20.24426-260.776425a41.808309 41.808309 0 0 0-0.647095-2.67746c-3.799638-13.968867-12.976723-25.453789-25.842866-32.339418-13.073992-6.998256-28.011455-8.26685-42.061209-3.572336-18.282496 6.107476-35.602541 14.345657-51.477882 24.48417-9.532372 6.086998-22.193738 3.294863-28.280737-6.235461-6.088022-9.531348-3.295887-22.192714 6.235462-28.280737 18.706385-11.946694 39.076583-21.64084 60.545411-28.813157 24.485194-8.178796 51.59051-5.880173 74.363767 6.309181 22.900219 12.256931 39.24962 32.747948 46.035932 57.700034 0.963476 3.540595 1.388389 5.876078 1.495896 6.506791l0.033788 0.204777c21.17702 132.582911-4.765162 233.193978-22.113875 281.366759-11.006767 30.565025-36.55373 52.979922-68.336154 59.96282-17.897515 3.932744-34.372854 5.662086-49.491545 5.66311zM702.722191 787.299214c-15.12381 0-31.586862-1.728318-49.493593-5.662085-31.782424-6.981874-57.328363-29.398819-68.336154-59.962821-17.347689-48.172781-43.288848-148.783848-22.113875-281.366758l0.033788-0.204778c0.106484-0.630713 0.533444-2.965172 1.495896-6.505767 6.786312-24.952085 23.135713-45.444126 46.036956-57.700033 22.773257-12.187307 49.87755-14.489001 74.363768-6.309182 33.46262 11.177756 81.236086 34.214152 118.795271 80.476363 45.591566 56.154991 63.587374 130.658006 53.489817 221.439775-1.506135 13.543955-6.115667 26.854464-13.328939 38.493992-15.738141 25.394404-58.092182 77.301294-140.942935 77.301294z m-99.541107-340.279072c-19.65655 123.399683 4.241957 216.339802 20.24426 260.777449 6.209864 17.244277 20.636409 29.893356 38.591262 33.838386 87.192026 19.158942 129.423201-25.116931 146.836418-53.215416 4.027965-6.497576 6.598941-13.913578 7.437503-21.445278 19.618667-176.384725-82.148367-237.694978-144.559297-258.543331-14.052826-4.69349-28.989265-3.42592-42.061209 3.572336-12.865119 6.885629-22.043227 18.37055-25.842866 32.339418a42.353016 42.353016 0 0 0-0.646071 2.676436z" fill="#515151" p-id="2880"></path><path d="M571.595245 441.592526c-3.222167 0-6.491433-0.762795-9.539539-2.371319-41.823668-22.073944-66.137873-86.002272-68.77233-93.218615l-1.241973-3.401347V209.773625c0-11.309837 9.167869-20.477706 20.477707-20.477706s20.477706 9.167869 20.477706 20.477706v125.419809c6.984946 17.555538 25.947302 56.076151 48.174829 67.80783 10.002336 5.279153 13.831667 17.666117 8.552514 27.668453-3.670629 6.953205-10.777417 10.922809-18.128914 10.922809z" fill="#515151" p-id="2881"></path><path d="M449.793847 450.805446c-7.351497 0-14.457261-3.969603-18.12789-10.923833-5.279153-10.002336-1.450846-22.3893 8.552515-27.667429 22.220359-11.727583 41.177596-50.229766 48.173804-67.808853V218.985522c0-11.309837 9.167869-20.477706 20.477707-20.477707s20.477706 9.167869 20.477706 20.477707v132.827619l-1.241973 3.401347c-2.634457 7.216344-26.947638 71.144672-68.771305 93.218615a20.375318 20.375318 0 0 1-9.540564 2.372343z" fill="#515151" p-id="2882"></path></svg>