<?xml version="1.0" standalone="no"?><!DOCTYPE svg PUBLIC "-//W3C//DTD SVG 1.1//EN" "http://www.w3.org/Graphics/SVG/1.1/DTD/svg11.dtd"><svg t="1637743968168" class="icon" viewBox="0 0 1024 1024" version="1.1" xmlns="http://www.w3.org/2000/svg" p-id="1040" xmlns:xlink="http://www.w3.org/1999/xlink" width="200" height="200"><defs><style type="text/css"></style></defs><path d="M203.52 736.0256l62.976-3.0208c306.816-14.1312 491.5456-13.0816 558.9248 3.7632a25.6 25.6 0 0 1-12.4416 49.664c-64.6656-16.1536-268.8512-16.1536-606.8992 0.7424a25.6 25.6 0 1 1-2.56-51.1488zM537.6 204.8c47.104 0 80.3072 22.0672 95.7184 62.72l0.4352 1.28H780.8a25.6 25.6 0 0 1 25.4208 22.6048l0.1792 2.9952a25.6 25.6 0 0 1-22.6048 25.4208l-2.9952 0.1792H614.4a25.6 25.6 0 0 1-25.088-20.5824C583.1168 268.6464 567.9616 256 537.6 256s-45.5424 12.6464-51.712 43.4176a25.6 25.6 0 0 1-22.0672 20.4032L460.8 320h-204.8a25.6 25.6 0 0 1-2.9952-51.0208L256 268.8h185.4208l0.4608-1.28c14.7712-38.9632 45.8752-60.8512 89.9072-62.6176L537.6 204.8z" fill="#515151" p-id="1041"></path><path d="M550.4 396.8m-64 0a64 64 0 1 0 128 0 64 64 0 1 0-128 0Z" fill="#515151" p-id="1042"></path><path d="M345.6 422.4a51.2 51.2 0 1 0 0 102.4 51.2 51.2 0 0 0 0-102.4z m0 25.6a25.6 25.6 0 1 1 0 51.2 25.6 25.6 0 0 1 0-51.2zM460.8 601.6a38.4 38.4 0 1 0 0 76.8 38.4 38.4 0 0 0 0-76.8z m0 25.6a12.8 12.8 0 1 1 0 25.6 12.8 12.8 0 0 1 0-25.6zM716.8 473.6a38.4 38.4 0 1 0 0 76.8 38.4 38.4 0 0 0 0-76.8z m0 25.6a12.8 12.8 0 1 1 0 25.6 12.8 12.8 0 0 1 0-25.6z" fill="#515151" p-id="1043"></path></svg>