<?xml version="1.0" standalone="no"?><!DOCTYPE svg PUBLIC "-//W3C//DTD SVG 1.1//EN" "http://www.w3.org/Graphics/SVG/1.1/DTD/svg11.dtd"><svg t="1637741840716" class="icon" viewBox="0 0 1024 1024" version="1.1" xmlns="http://www.w3.org/2000/svg" p-id="1040" xmlns:xlink="http://www.w3.org/1999/xlink" width="200" height="200"><defs><style type="text/css"></style></defs><path d="M404.6592 299.1616c102.6816-25.6 206.4128 34.2272 231.3216 134.1952 2.5856 10.3936 4.2496 20.9152 4.992 31.488a25.6 25.6 0 0 1-51.0976 3.5072 130.5344 130.5344 0 0 0-3.584-22.6048c-17.9712-72.1408-93.6192-115.7632-169.2672-96.9216-75.648 18.8672-121.9328 92.928-103.936 165.0432 12.928 51.9168 56.32 90.4704 110.2848 99.4048a25.6 25.6 0 1 1-8.3712 50.5088c-73.728-12.2112-133.632-65.408-151.6032-137.5232-24.9344-99.968 38.5536-201.4976 141.2608-227.0976zM640 563.2a128 128 0 1 0 0 256 128 128 0 0 0 0-256z m0 51.2a76.8 76.8 0 1 1 0 153.6 76.8 76.8 0 0 1 0-153.6zM242.176 218.368a102.4 102.4 0 0 1 143.7696 17.664 25.6 25.6 0 0 1-38.4 33.7408l-1.9456-2.2272a51.2 51.2 0 1 0-80.7168 63.0272 25.6 25.6 0 0 1-40.3456 31.5392 102.4 102.4 0 0 1 17.664-143.744z" fill="#515151" p-id="1041"></path><path d="M621.9008 365.9008a25.6 25.6 0 0 1 38.3232 33.792l-2.1248 2.4064-25.6 25.6a25.6 25.6 0 0 1-38.3232-33.792l2.1248-2.4064 25.6-25.6z" fill="#515151" p-id="1042"></path><path d="M716.8 204.8a102.4 102.4 0 1 0 0 204.8 102.4 102.4 0 0 0 0-204.8z m0 51.2a51.2 51.2 0 1 1 0 102.4 51.2 51.2 0 0 1 0-102.4z" fill="#515151" p-id="1043"></path><path d="M396.8 499.2m-38.4 0a38.4 38.4 0 1 0 76.8 0 38.4 38.4 0 1 0-76.8 0Z" fill="#515151" p-id="1044"></path></svg>