<?xml version="1.0" standalone="no"?><!DOCTYPE svg PUBLIC "-//W3C//DTD SVG 1.1//EN" "http://www.w3.org/Graphics/SVG/1.1/DTD/svg11.dtd"><svg t="1637741618395" class="icon" viewBox="0 0 1024 1024" version="1.1" xmlns="http://www.w3.org/2000/svg" p-id="1417" xmlns:xlink="http://www.w3.org/1999/xlink" width="200" height="200"><defs><style type="text/css"></style></defs><path d="M285.916905 765.271346c-8.89654 0-17.143936-1.00136-24.595773-3.046059-10.900283-2.989745-19.005359-10.795847-21.676676-20.881118-2.720463-10.272641 0.577471-21.327531 8.821796-29.572879l196.270625-196.266531a20.475659 20.475659 0 0 1 28.959573 0l48.352984 48.352985a20.47873 20.47873 0 0 1 5.617035 18.405363c-9.319404 47.725343-53.150911 99.949638-117.251252 139.697889-45.232182 28.051386-89.779385 43.310349-124.498312 43.31035z m173.299759-206.326204L294.177612 723.981122c25.703617-2.42968 60.657014-15.742237 94.655127-36.825059 48.858784-30.297791 84.526853-68.731374 95.94215-102.652695l-25.558225-25.558226zM546.520294 748.192938h-53.781625c-9.785272 0-17.791031 8.005759-17.791031 17.791032 0 9.785272 8.005759 17.791031 17.791031 17.791031h53.781625c9.785272 0 17.791031-8.005759 17.791031-17.791031-0.001024-9.785272-8.006783-17.791031-17.791031-17.791032zM655.333707 748.192938h-53.781625c-9.785272 0-17.791031 8.005759-17.791031 17.791032 0 9.785272 8.005759 17.791031 17.791031 17.791031h53.781625c9.785272 0 17.791031-8.005759 17.791031-17.791031 0-9.785272-8.005759-17.791031-17.791031-17.791032zM760.676148 748.192938h-53.781624c-9.785272 0-17.791031 8.005759-17.791032 17.791032 0 9.785272 8.005759 17.791031 17.791032 17.791031h53.781624c9.785272 0 17.791031-8.005759 17.791032-17.791031 0-9.785272-8.005759-17.791031-17.791032-17.791032zM565.549202 558.283712l-0.291807-0.001024c-21.226167-0.074744-41.108996-8.369239-55.987073-23.352776-30.806662-31.026797-30.627482-81.332331 0.399315-112.137969l158.795399-157.668101c31.025773-30.805638 81.331307-30.628506 112.137968 0.399315 7.967876 8.025213 7.921801 20.990673-0.103412 28.959573-8.024189 7.967876-20.989649 7.923849-28.959572-0.103412-14.895484-14.99992-39.215832-15.088998-54.218824-0.192491L538.525797 451.854928c-15.000944 14.89446-15.087974 39.216856-0.19249 54.218824 14.896508 15.001968 39.21788 15.088998 54.218823 0.19249l133.3969-132.450829c8.025213-7.966852 20.990673-7.921801 28.959572 0.103412 7.967876 8.025213 7.921801 20.990673-0.103412 28.959573L621.409314 535.329227c-14.914938 14.808453-34.744525 22.953461-55.860112 22.954485z" fill="#707070" p-id="1418"></path></svg>