<?xml version="1.0" standalone="no"?><!DOCTYPE svg PUBLIC "-//W3C//DTD SVG 1.1//EN" "http://www.w3.org/Graphics/SVG/1.1/DTD/svg11.dtd"><svg t="1637741692558" class="icon" viewBox="0 0 1024 1024" version="1.1" xmlns="http://www.w3.org/2000/svg" p-id="2411" xmlns:xlink="http://www.w3.org/1999/xlink" width="200" height="200"><defs><style type="text/css"></style></defs><path d="M563.574128 773.338538a258.815685 258.815685 0 0 1-105.190907-22.329915c-38.417201-17.086598-71.585966-42.99704-95.920649-74.934071-24.853792-32.615867-39.187163-69.904747-41.520598-107.955397-1.092486-3.115683-5.089734-6.513958-9.820084-6.904059-7.748764-0.658358-15.521078 7.549107-20.76849 21.908074-13.027917 35.651687-15.588654 49.814069-17.645639 61.195578-0.998288 5.522837-1.941287 10.737485-3.766874 17.150079l-0.244709 0.797607c-4.726255 14.355896-13.391396 26.039452-25.056522 33.78924-11.509495 7.647399-25.080071 10.757963-38.217543 8.753195-21.514902-3.278481-46.852992-22.248004-47.818517-64.898971-5.08871-60.082615 31.748636-126.763147 50.478571-149.739133l2.264834-2.78804c4.893148-6.033756 9.514966-11.732702 14.82074-16.7866 29.608716-28.19985 74.098581-33.39402 136.009855-15.878413 15.44531 4.368919 21.96746 6.836482 33.232246 12.569216 30.484138 15.515958 53.43248 32.375254 81.847345 60.132785l0.731054 0.714672 0.656311 0.784296c11.017006 13.152831 25.768122 10.081175 33.577295 7.080167 22.420017-8.612923 44.310685-37.477275 42.676564-82.547683-0.37167-11.879118-2.264834-29.460252-4.457996-49.818164-6.543651-60.772713-15.503672-143.98285-1.466204-212.152111 2.112275-11.075368 8.313949-20.362007 17.482842-26.169485 10.87059-6.886653 25.530581-8.60678 40.222311-4.719087 23.326155 6.171981 39.567024 28.503944 38.617883 53.099716l-0.051195 1.30955c-0.125938 3.229334-0.255971 6.568224-0.301022 9.994144-0.147439 11.308813 4.497928 21.570192 13.078087 28.896092 9.315309 7.952517 21.849713 11.277073 34.408691 9.115651 29.006671-4.990417 60.525957 0.543683 93.676292 16.455885 10.19585 4.893148 14.494121 17.12653 9.599949 27.32238-4.892124 10.19585-17.12653 14.495145-27.32238 9.599949-25.328875-12.158638-48.546499-16.539844-69.008847-13.01563-24.578367 4.226599-49.347177-2.450158-67.947078-18.330619-17.739837-15.145312-27.740125-37.223351-27.437055-60.57408 0.051194-3.958341 0.19761-7.731358 0.327643-11.060009l0.050171-1.29112c0.217064-5.603724-3.220119-10.619739-8.169582-11.929288-3.263123-0.863135-5.811573-0.758699-7.10474-0.490441-12.759659 61.900011-4.19281 141.454877 2.063129 199.554226 2.28224 21.187259 4.251172 39.485114 4.669941 52.818149 1.053578 29.038412-5.427616 56.174444-18.745292 78.373302-12.324508 20.542211-30.144208 36.094005-50.176525 43.790551-29.378342 11.285264-59.514358 4.316701-78.938487-18.163726-24.886557-24.225127-44.898395-38.924025-71.139552-52.280608-8.342618-4.246052-12.249764-5.826931-25.80191-9.660358-46.787464-13.234742-78.389684-11.232022-96.615867 6.125906-3.399299 3.237525-6.867199 7.513271-11.256595 12.926552l-2.330363 2.867903c-16.422097 20.144944-45.415457 76.294815-41.368039 120.919833l0.0686 0.763818 0.012287 0.765866c0.230374 14.736781 5.23103 24.631609 13.05249 25.823412 6.037852 0.919449 14.225863-3.23343 18.078743-14.49412 1.196922-4.291103 1.877806-8.062073 2.733774-12.794471 2.21364-12.241573 5.244341-29.007695 19.480442-67.965508 17.718336-48.490185 52.398355-49.512023 62.602397-48.669365 23.085542 1.904427 42.819908 19.130273 46.922616 40.959508l0.255972 1.363815 0.069624 1.386341c3.110564 61.580559 47.579951 120.254308 113.289839 149.479067 79.536436 35.374214 167.486138 21.192378 241.298031-38.907643 107.588846-87.758235 131.351177-207.032684 107.168029-286.304958-3.299982-10.817348 2.794183-22.262339 13.611532-25.562321 10.822468-3.298959 22.262339 2.795207 25.562321 13.611532 15.067496 49.389156 13.919721 106.884413-3.230358 161.893676-19.825492 63.588398-60.366231 121.720511-117.237942 168.10866-44.832867 36.504583-94.071512 58.334842-146.362359 64.894875a258.243333 258.243333 0 0 1-32.258531 2.020126z" fill="#515151" p-id="2412"></path></svg>