<?xml version="1.0" standalone="no"?><!DOCTYPE svg PUBLIC "-//W3C//DTD SVG 1.1//EN" "http://www.w3.org/Graphics/SVG/1.1/DTD/svg11.dtd"><svg t="1637741878193" class="icon" viewBox="0 0 1024 1024" version="1.1" xmlns="http://www.w3.org/2000/svg" p-id="1457" xmlns:xlink="http://www.w3.org/1999/xlink" width="200" height="200"><defs><style type="text/css"></style></defs><path d="M512.4608 332.8c-161.664 0-302.464 97.2032-344.4736 235.776l-2.2784 7.4496 2.2784 7.424C210.0224 722.048 350.8224 819.2 512.4608 819.2c161.6896 0 302.4896-97.2032 344.4992-235.776l2.2528-7.4496-2.2528-7.424C814.9248 429.952 674.1248 332.8 512.4608 332.8z m8.192 51.3024c130.816 3.0464 243.3792 78.848 282.7776 185.7792l2.1248 6.0928-2.1248 6.0928C763.2384 691.2512 646.784 768 512.4608 768l-8.192-0.1024c-130.816-3.0464-243.3536-78.848-282.752-185.7792l-2.1504-6.1184 2.1504-6.0672C261.7088 460.7488 378.1632 384 512.4608 384l8.192 0.1024z" fill="#515151" p-id="1458"></path><path d="M563.2 409.6a128 128 0 1 1 0 256 128 128 0 0 1 0-256z m-89.6 102.4a12.8 12.8 0 0 0-12.8 12.8 115.2 115.2 0 0 0 115.2 115.2 12.8 12.8 0 1 0 0-25.6 89.6 89.6 0 0 1-89.6-89.6 12.8 12.8 0 0 0-12.8-12.8z m140.8 25.6a51.2 51.2 0 1 0 0-102.4 51.2 51.2 0 0 0 0 102.4z" fill="#515151" p-id="1459"></path><path d="M499.2 153.6a25.6 25.6 0 0 1 25.4208 22.6048L524.8 179.2v76.8a25.6 25.6 0 0 1-51.0208 2.9952L473.6 256V179.2a25.6 25.6 0 0 1 25.6-25.6zM737.1008 237.9008a25.6 25.6 0 0 1 38.3232 33.792l-2.1248 2.4064-51.2 51.2a25.6 25.6 0 0 1-38.3232-33.792l2.1248-2.4064 51.2-51.2zM286.8992 237.9008a25.6 25.6 0 0 0-38.3232 33.792l2.1248 2.4064 51.2 51.2a25.6 25.6 0 0 0 38.3232-33.792l-2.1248-2.4064-51.2-51.2z" fill="#515151" p-id="1460"></path></svg>